<svg width="21" height="20" viewBox="0 0 21 20" fill="none" xmlns="http://www.w3.org/2000/svg">
<path d="M10.4224 20C11.736 20 13.037 19.7418 14.2505 19.2393C15.464 18.7367 16.5669 17.9998 17.4957 17.0713C18.4244 16.1428 19.161 15.0403 19.6636 13.8271C20.006 13.0009 20.2319 12.1336 20.3433 11.25L15.2642 11.25C15.206 11.4754 15.1321 11.697 15.0425 11.9131C14.7912 12.5197 14.4229 13.0709 13.9586 13.5352C13.4942 13.9994 12.9432 14.3679 12.3365 14.6191C11.7297 14.8704 11.0792 15 10.4224 15C9.76565 15 9.11514 14.8704 8.50836 14.6191C7.90164 14.3679 7.35066 13.9994 6.88629 13.5352C6.42188 13.0709 6.05267 12.5197 5.80133 11.9131C5.71187 11.6971 5.63883 11.4753 5.58063 11.25H0.501526C0.612911 12.1336 0.83889 13.0009 1.18121 13.8271C1.68388 15.0403 2.42045 16.1428 3.34918 17.0713C4.27799 17.9999 5.38075 18.7367 6.5943 19.2393C7.80786 19.7418 9.10887 20 10.4224 20Z" fill="white"/>
<ellipse cx="10.422" cy="10" rx="3.75096" ry="3.75" fill="white"/>
<path d="M10.4209 0C11.7343 -5.73981e-08 13.0355 0.258272 14.249 0.760742C15.4625 1.26326 16.5653 2.0002 17.4941 2.92871C18.4229 3.85719 19.1594 4.95976 19.6621 6.17285C20.0044 6.9991 20.2314 7.8664 20.3428 8.75L15.2627 8.75C15.2045 8.52465 15.1315 8.3029 15.042 8.08691C14.7907 7.48042 14.4223 6.92907 13.958 6.46484C13.4936 6.00055 12.9417 5.63213 12.335 5.38086C11.7282 5.12963 11.0776 5 10.4209 5C9.76436 5.00006 9.11439 5.1297 8.50781 5.38086C7.90103 5.63213 7.34918 6.00055 6.88477 6.46484C6.42048 6.92908 6.05207 7.4804 5.80078 8.08691C5.71131 8.3029 5.63829 8.52465 5.58008 8.75H0.5C0.611383 7.8664 0.838333 6.9991 1.18066 6.17285C1.68334 4.95977 2.41992 3.85719 3.34863 2.92871C4.27742 2.00021 5.38027 1.26326 6.59375 0.760742C7.80708 0.258346 9.10762 5.98432e-05 10.4209 0Z" fill="#F00000"/>
</svg>
