<svg width="64" height="64" viewBox="0 0 64 64" fill="none" xmlns="http://www.w3.org/2000/svg">
<path d="M63.9971 32H63.9951V32.1582C63.9954 32.1055 63.9971 32.0527 63.9971 32ZM31.8721 64C36.0907 64 40.2685 63.1726 44.166 61.5645C48.0636 59.9563 51.6048 57.5984 54.5879 54.627C57.5709 51.6556 59.9373 48.1284 61.5518 44.2461C62.6513 41.6018 63.3865 38.8278 63.7441 36H47.4238C47.2368 36.7217 46.9995 37.4314 46.7119 38.123C45.9047 40.0641 44.7219 41.8278 43.2305 43.3135C41.739 44.7992 39.9682 45.9782 38.0195 46.7822C36.0707 47.5863 33.9814 48 31.8721 48C29.7629 48 27.6743 47.5862 25.7256 46.7822C23.7768 45.9782 22.0062 44.7992 20.5146 43.3135C19.0231 41.8277 17.8394 40.0643 17.0322 38.123C16.7446 37.4314 16.5084 36.7216 16.3213 36H0C0.357678 38.8279 1.09279 41.6018 2.19238 44.2461C3.80675 48.1283 6.17336 51.6556 9.15625 54.627C12.1393 57.5984 15.6815 59.9563 19.5791 61.5645C23.4765 63.1724 27.6536 64 31.8721 64Z" fill="white"/>
<ellipse cx="32.0469" cy="32.1078" rx="12.0469" ry="12" fill="white"/>
<path d="M32.125 -0.000396729C36.3437 -0.000396729 40.5214 0.827976 44.4189 2.43613C48.3164 4.04427 51.8578 6.40125 54.8408 9.37265C57.8239 12.3441 60.1903 15.8721 61.8047 19.7545C62.9084 22.4089 63.6449 25.1937 64.001 28.0328H47.6846C47.4963 27.3 47.2567 26.5795 46.9648 25.8775C46.1576 23.9363 44.974 22.1719 43.4824 20.6861C41.9909 19.2005 40.2201 18.0224 38.2715 17.2184C36.3227 16.4143 34.2343 15.9996 32.125 15.9996C30.0157 15.9996 27.9273 16.4143 25.9785 17.2184C24.0299 18.0224 22.2591 19.2005 20.7676 20.6861C19.276 22.1719 18.0924 23.9363 17.2852 25.8775C16.9933 26.5795 16.7537 27.3 16.5654 28.0328H0.74707V31.9996H0C5.22954e-05 27.7976 0.831019 23.6367 2.44531 19.7545C4.05974 15.8721 6.42612 12.3441 9.40918 9.37265C12.3922 6.40125 15.9336 4.04427 19.8311 2.43613C23.7286 0.827976 27.9063 -0.000396545 32.125 -0.000396729Z" fill="white"/>
</svg>
